<svg xmlns="http://www.w3.org/2000/svg" viewBox="0 0 32 32" fill="#3B82F6">
  <!-- Sun rays -->
  <g stroke="#FCD34D" stroke-width="2" stroke-linecap="round">
    <line x1="16" y1="2" x2="16" y2="6"/>
    <line x1="16" y1="26" x2="16" y2="30"/>
    <line x1="2" y1="16" x2="6" y2="16"/>
    <line x1="26" y1="16" x2="30" y2="16"/>
    <line x1="5.64" y1="5.64" x2="8.46" y2="8.46"/>
    <line x1="23.54" y1="23.54" x2="26.36" y2="26.36"/>
    <line x1="5.64" y1="26.36" x2="8.46" y2="23.54"/>
    <line x1="23.54" y1="8.46" x2="26.36" y2="5.64"/>
  </g>
  
  <!-- Sun circle -->
  <circle cx="16" cy="16" r="6" fill="#FCD34D"/>
  
  <!-- Cloud -->
  <path d="M24 18c0-1.1-.9-2-2-2-.2 0-.4 0-.6.1-.4-2.3-2.4-4.1-4.9-4.1-2.8 0-5 2.2-5 5 0 .3 0 .5.1.8-1.2.4-2.1 1.5-2.1 2.8 0 1.7 1.3 3 3 3h10c1.7 0 3-1.3 3-3z" fill="#E5E7EB" opacity="0.8"/>
</svg>
