<?xml version="1.0" standalone="no"?>
<!DOCTYPE svg PUBLIC "-//W3C//DTD SVG 20010904//EN"
 "http://www.w3.org/TR/2001/REC-SVG-20010904/DTD/svg10.dtd">
<svg version="1.0" xmlns="http://www.w3.org/2000/svg"
 width="1024.000000pt" height="1024.000000pt" viewBox="0 0 1024.000000 1024.000000"
 preserveAspectRatio="xMidYMid meet">

<g transform="translate(0.000000,1024.000000) scale(0.100000,-0.100000)"
fill="#000000" stroke="none">
<path d="M5944 7780 c-12 -4 -31 -21 -43 -36 -19 -24 -21 -39 -21 -166 l0
-140 34 -34 c45 -45 92 -47 138 -5 l33 29 3 142 c4 159 -3 180 -63 206 -39 16
-51 16 -81 4z m110 -41 c25 -29 26 -36 26 -151 0 -133 -12 -177 -56 -197 -39
-18 -61 -13 -99 20 l-35 31 0 130 c0 94 4 137 15 158 17 34 27 38 82 39 34 1
46 -4 67 -30z"/>
<path d="M5274 7484 c-29 -30 -34 -43 -34 -82 0 -46 2 -48 99 -144 84 -83 104
-98 131 -98 70 0 129 66 116 132 -5 28 -28 56 -106 132 -89 86 -103 96 -136
96 -29 0 -44 -7 -70 -36z m98 17 c33 -13 185 -163 197 -195 24 -61 -27 -136
-92 -136 -26 0 -47 16 -129 98 -90 90 -98 101 -98 136 0 30 7 45 34 72 36 36
50 40 88 25z"/>
<path d="M6506 7430 c-91 -95 -111 -127 -101 -169 13 -56 78 -106 123 -96 35
7 196 167 212 210 26 69 -32 145 -113 145 -30 0 -45 -11 -121 -90z m193 51
c25 -23 31 -37 31 -70 0 -36 -7 -49 -70 -118 -39 -42 -86 -87 -104 -101 -31
-22 -35 -23 -68 -9 -46 19 -68 52 -68 101 0 35 8 47 92 132 106 108 131 117
187 65z"/>
<path d="M5855 7261 c-84 -24 -140 -55 -197 -109 -67 -63 -111 -125 -142 -202
l-26 -65 20 -25 c109 -134 154 -213 190 -330 l16 -55 130 -6 c183 -10 267 -33
401 -114 32 -19 63 -35 68 -34 12 0 75 80 123 153 63 98 93 249 72 366 -17 96
-82 224 -146 286 -135 132 -336 185 -509 135z m248 -6 c307 -65 479 -389 366
-690 -21 -55 -76 -143 -127 -203 l-28 -32 -79 45 c-134 76 -249 106 -408 106
-84 0 -99 2 -103 17 -39 126 -101 245 -174 332 -22 26 -40 55 -40 64 0 32 57
142 101 193 126 149 301 209 492 168z"/>
<path d="M6649 6839 c-18 -20 -29 -42 -29 -61 0 -36 24 -84 49 -98 11 -5 79
-10 151 -10 l132 0 29 29 c39 39 40 96 3 140 l-26 31 -140 0 -140 0 -29 -31z
m312 8 c47 -36 51 -97 9 -138 l-29 -30 -133 3 -132 3 -23 34 c-30 44 -29 72 3
110 l26 31 131 0 c88 -1 137 -5 148 -13z"/>
<path d="M6495 6352 c-52 -17 -85 -60 -85 -110 0 -27 11 -45 53 -90 30 -31 69
-74 87 -95 44 -49 83 -60 131 -36 47 24 75 86 59 133 -10 32 -147 175 -187
195 -24 12 -28 12 -58 3z m148 -101 l90 -90 -6 -48 c-6 -56 -41 -93 -89 -93
-24 0 -46 15 -110 78 -117 113 -134 158 -79 213 22 22 39 29 67 29 34 0 46 -9
127 -89z"/>
<path d="M4322 5023 c280 -2 736 -2 1015 0 280 1 51 2 -507 2 -558 0 -787 -1
-508 -2z"/>
<path d="M5048 3743 c6 -2 18 -2 25 0 6 3 1 5 -13 5 -14 0 -19 -2 -12 -5z"/>
<path d="M5103 3743 c9 -2 23 -2 30 0 6 3 -1 5 -18 5 -16 0 -22 -2 -12 -5z"/>
<path d="M5223 3743 c32 -2 81 -2 110 0 29 2 3 3 -58 3 -60 0 -84 -1 -52 -3z"/>
<path d="M5408 3743 c6 -2 18 -2 25 0 6 3 1 5 -13 5 -14 0 -19 -2 -12 -5z"/>
<path d="M5518 3743 c17 -2 47 -2 65 0 17 2 3 4 -33 4 -36 0 -50 -2 -32 -4z"/>
<path d="M6168 3743 c7 -3 16 -2 19 1 4 3 -2 6 -13 5 -11 0 -14 -3 -6 -6z"/>
<path d="M1250 2545 l0 -495 90 0 90 0 0 200 0 200 205 0 205 0 0 80 0 80
-205 0 -205 0 0 135 0 135 226 0 225 0 -3 78 -3 77 -312 3 -313 2 0 -495z"/>
<path d="M3910 3025 c0 -15 100 -370 211 -745 28 -96 54 -186 58 -200 7 -24 9
-25 105 -25 l98 0 82 290 c46 160 89 314 96 343 13 51 30 70 30 34 0 -10 42
-164 94 -343 l93 -324 99 -3 99 -3 36 133 c20 73 82 291 138 484 55 193 101
356 101 363 0 7 -31 11 -93 11 l-94 0 -94 -369 c-52 -203 -95 -368 -97 -366
-2 1 -18 61 -37 131 -18 71 -58 217 -88 324 -30 107 -60 214 -66 238 l-12 42
-84 0 c-46 0 -86 -4 -89 -9 -8 -13 -196 -702 -196 -718 0 -7 -4 -13 -8 -13 -4
0 -27 78 -51 173 -24 94 -67 260 -95 367 l-51 195 -92 3 c-79 2 -93 0 -93 -13z"/>
<path d="M7250 2545 l0 -495 90 0 90 0 0 216 c0 247 7 291 55 333 49 42 103
49 163 19 74 -36 77 -46 80 -325 l4 -243 84 0 84 0 0 258 c0 282 -6 324 -56
389 -16 21 -50 46 -82 60 -47 22 -64 25 -131 21 -84 -5 -130 -24 -173 -71
l-28 -29 0 181 0 181 -90 0 -90 0 0 -495z"/>
<path d="M6810 2860 l0 -90 -50 0 -50 0 0 -70 0 -70 49 0 49 0 4 -232 c3 -225
4 -234 27 -275 35 -62 75 -78 191 -78 130 0 130 0 130 84 l0 69 -62 -5 c-56
-5 -65 -3 -83 17 -18 20 -20 39 -23 221 l-3 199 85 0 86 0 0 70 0 70 -85 0
-85 0 0 90 0 90 -90 0 -90 0 0 -90z"/>
<path d="M2152 2762 c-66 -24 -118 -65 -159 -126 -46 -67 -58 -116 -58 -231 0
-133 21 -190 95 -266 72 -74 137 -99 255 -99 152 0 254 60 317 188 32 64 33
71 33 187 0 103 -3 127 -22 168 -37 80 -78 123 -150 159 -59 29 -78 33 -162
35 -74 3 -108 -1 -149 -15z m201 -136 c71 -29 111 -108 111 -216 0 -76 -16
-128 -52 -172 -75 -88 -214 -72 -271 32 -29 52 -40 170 -22 236 29 108 134
162 234 120z"/>
<path d="M3015 2766 c-31 -13 -85 -69 -85 -87 0 -5 -4 -9 -10 -9 -5 0 -7 21
-3 50 l6 50 -87 0 -86 0 0 -360 0 -360 84 0 84 0 4 223 c3 211 4 225 27 271
31 63 88 91 168 83 l53 -6 0 80 0 79 -62 0 c-35 -1 -77 -7 -93 -14z"/>
<path d="M3433 2762 c-131 -47 -208 -158 -220 -319 -14 -186 64 -327 213 -383
84 -31 226 -26 300 12 72 38 131 108 147 178 l6 25 -84 2 c-73 2 -85 -1 -90
-16 -3 -10 -19 -31 -35 -46 -26 -25 -40 -30 -98 -33 -57 -3 -72 0 -101 20 -43
28 -68 70 -77 126 l-7 42 253 0 253 0 -6 78 c-12 149 -69 247 -174 298 -75 37
-201 44 -280 16z m206 -141 c34 -23 59 -59 70 -98 l10 -33 -164 0 -163 0 10
38 c15 60 57 101 116 112 48 9 91 2 121 -19z"/>
<path d="M5441 2759 c-104 -41 -178 -140 -201 -270 -35 -192 50 -371 205 -429
82 -30 227 -26 295 9 61 31 107 76 136 133 38 75 36 78 -55 78 -77 0 -80 -1
-93 -27 -22 -45 -62 -67 -131 -71 -84 -4 -123 17 -159 88 -16 29 -28 64 -28
77 l0 23 251 0 252 0 -6 83 c-7 105 -28 164 -79 222 -63 71 -124 97 -238 102
-79 3 -104 0 -149 -18z m226 -140 c34 -21 55 -53 67 -101 l6 -28 -161 0 -161
0 6 32 c15 75 71 118 155 118 37 0 64 -6 88 -21z"/>
<path d="M6225 2770 c-89 -23 -155 -77 -179 -147 -25 -74 -26 -73 67 -73 80 0
82 1 99 29 25 45 62 65 120 63 79 -2 116 -36 121 -109 l2 -38 -110 -6 c-128
-6 -207 -28 -260 -72 -95 -78 -101 -236 -14 -319 46 -44 99 -60 187 -59 75 1
116 17 171 66 l41 37 0 -46 0 -46 83 0 82 0 -3 252 c-3 302 -10 341 -78 405
-28 28 -61 47 -95 58 -55 16 -182 19 -234 5z m235 -429 c0 -81 -43 -141 -115
-161 -86 -24 -155 14 -155 85 0 75 67 110 213 114 l57 1 0 -39z"/>
<path d="M8225 2766 c-141 -44 -225 -179 -225 -363 0 -116 44 -226 114 -286
12 -10 44 -30 71 -45 46 -25 59 -27 165 -27 128 0 149 7 221 72 32 29 99 135
99 156 0 3 -39 5 -88 5 l-87 1 -14 -30 c-20 -45 -65 -69 -132 -69 -91 0 -157
57 -166 144 l-6 46 248 0 248 0 -5 90 c-4 70 -11 102 -32 144 -35 72 -112 141
-179 161 -61 18 -176 19 -232 1z m155 -127 c54 -12 77 -31 101 -84 31 -67 36
-65 -142 -65 l-161 0 7 33 c11 48 43 87 89 108 48 22 47 22 106 8z"/>
<path d="M9041 2758 c-26 -13 -52 -36 -65 -57 l-21 -36 -3 53 -3 52 -85 0 -84
0 0 -360 0 -360 89 0 90 0 3 239 c3 224 4 241 24 267 41 55 70 69 145 69 l69
0 0 77 0 78 -57 0 c-39 0 -72 -7 -102 -22z"/>
</g>
</svg>
